<svg xmlns="http://www.w3.org/2000/svg" xmlns:xlink="http://www.w3.org/1999/xlink" width="500" zoomAndPan="magnify" viewBox="0 0 375 374.999991" height="500" preserveAspectRatio="xMidYMid meet" version="1.0"><defs><g/></defs><rect x="-37.5" width="450" fill="#ffffff" y="-37.499999" height="449.999989" fill-opacity="1"/><rect x="-37.5" width="450" fill="#ffffff" y="-37.499999" height="449.999989" fill-opacity="1"/><rect x="-37.5" width="450" fill="#0e0e0e" y="-37.499999" height="449.999989" fill-opacity="1"/><g fill="#f8f8f8" fill-opacity="1"><g transform="translate(165.09827, 270.657183)"><g><path d="M 14.359375 -184.6875 L 56.765625 -184.6875 C 73.492188 -184.6875 85.882812 -180.921875 93.9375 -173.390625 C 101.988281 -165.867188 106.015625 -154.203125 106.015625 -138.390625 C 106.015625 -114.835938 97.203125 -101.84375 79.578125 -99.40625 C 90.515625 -96.820312 98.488281 -91.691406 103.5 -84.015625 C 108.519531 -76.335938 111.03125 -65.890625 111.03125 -52.671875 C 111.03125 -36.097656 107.113281 -23.175781 99.28125 -13.90625 C 91.457031 -4.632812 79.566406 0 63.609375 0 L 14.359375 0 Z M 55.40625 -107.609375 C 66.039062 -107.609375 73.410156 -109.925781 77.515625 -114.5625 C 81.617188 -119.207031 83.671875 -127.148438 83.671875 -138.390625 C 83.671875 -146.597656 82.414062 -152.640625 79.90625 -156.515625 C 77.40625 -160.398438 73.644531 -162.875 68.625 -163.9375 C 63.613281 -165 56.164062 -165.53125 46.28125 -165.53125 L 40.125 -165.53125 L 40.125 -107.609375 Z M 57.453125 -18.46875 C 65.054688 -18.46875 70.945312 -19.644531 75.125 -22 C 79.300781 -24.351562 82.222656 -27.960938 83.890625 -32.828125 C 85.566406 -37.691406 86.40625 -44.304688 86.40625 -52.671875 C 86.40625 -64.523438 83.972656 -73.378906 79.109375 -79.234375 C 74.242188 -85.085938 66.34375 -88.015625 55.40625 -88.015625 L 40.125 -88.015625 L 40.125 -18.46875 Z M 57.453125 -18.46875 "/></g></g></g><g fill="#f8f8f8" fill-opacity="1"><g transform="translate(94.619345, 290.026182)"><g><path d="M 19.390625 0 L 110.089844 0 L 110.089844 -10.007812 L 87.570312 -10.007812 C 81.628906 -10.007812 79.128906 -12.824219 79.128906 -18.453125 L 79.128906 -204.230469 C 79.128906 -210.171875 81.628906 -212.675781 87.570312 -212.675781 L 110.089844 -212.675781 L 110.089844 -222.683594 L 19.390625 -222.683594 L 19.390625 -212.675781 L 41.910156 -212.675781 C 47.851562 -212.675781 50.355469 -210.171875 50.355469 -204.230469 L 50.355469 -18.453125 C 50.355469 -12.824219 47.851562 -10.007812 41.910156 -10.007812 L 19.390625 -10.007812 Z M 19.390625 0 "/></g></g></g></svg>